HIERARCHY
ROOT Hips
{
	OFFSET 0.000000 97.167313 0.000000
	CHANNELS 6 Xposition Yposition Zposition Xrotation Yrotation Zrotation
	JOINT Spine
	{
		OFFSET 0.000000 13.784798 0.064400
		CHANNELS 3 Xrotation Yrotation Zrotation
		JOINT Spine1
		{
			OFFSET 0.000000 12.037903 0.404700
			CHANNELS 3 Xrotation Yrotation Zrotation
			JOINT Spine2
			{
				OFFSET 0.000000 17.795601 0.420200
				CHANNELS 3 Xrotation Yrotation Zrotation
				JOINT Neck
				{
					OFFSET 0.000000 39.131302 11.954600
					CHANNELS 3 Xrotation Yrotation Zrotation
					JOINT Head
					{
						OFFSET 0.000000 14.456192 15.627699
						CHANNELS 3 Xrotation Yrotation Zrotation
						JOINT HeadTop_End
						{
							OFFSET 0.000000 15.703506 7.603401
							CHANNELS 3 Xrotation Yrotation Zrotation
							End Site
							{
								OFFSET 0.000000 17.447403 0.000000
							}
						}
					}
				}
				JOINT LeftShoulder
				{
					OFFSET 17.399500 24.608795 1.168800
					CHANNELS 3 Xrotation Yrotation Zrotation
					JOINT LeftArm
					{
						OFFSET 18.980635 5.765305 1.818600
						CHANNELS 3 Xrotation Yrotation Zrotation
						JOINT LeftForeArm
						{
							OFFSET 49.290169 0.000000 0.000000
							CHANNELS 3 Xrotation Yrotation Zrotation
							JOINT LeftHand
							{
								OFFSET 31.562012 0.000000 0.000000
								CHANNELS 3 Xrotation Yrotation Zrotation
								JOINT LeftHandThumb1
								{
									OFFSET 6.133995 -4.388519 7.076070
									CHANNELS 3 Xrotation Yrotation Zrotation
									JOINT LeftHandThumb2
									{
										OFFSET 6.037666 -3.485840 3.485847
										CHANNELS 3 Xrotation Yrotation Zrotation
										JOINT LeftHandThumb3
										{
											OFFSET 6.496506 -3.750763 3.750761
											CHANNELS 3 Xrotation Yrotation Zrotation
											JOINT LeftHandThumb4
											{
												OFFSET 5.616882 -3.242905 3.242910
												CHANNELS 3 Xrotation Yrotation Zrotation
												End Site
												{
													OFFSET -1.254608 7.132141 0.375429
												}
											}
										}
									}
								}
								JOINT LeftHandPinky1
								{
									OFFSET 18.920792 -0.453171 -11.426712
									CHANNELS 3 Xrotation Yrotation Zrotation
									JOINT LeftHandPinky2
									{
										OFFSET 4.919586 0.000000 0.000000
										CHANNELS 3 Xrotation Yrotation Zrotation
										JOINT LeftHandPinky3
										{
											OFFSET 5.233047 0.000000 0.000000
											CHANNELS 3 Xrotation Yrotation Zrotation
											JOINT LeftHandPinky4
											{
												OFFSET 5.571716 0.000000 0.000000
												CHANNELS 3 Xrotation Yrotation Zrotation
												End Site
												{
													OFFSET -3.459808 4.342407 -0.466164
												}
											}
										}
									}
								}
								JOINT LeftHandRing1
								{
									OFFSET 22.726120 -0.094986 -6.500475
									CHANNELS 3 Xrotation Yrotation Zrotation
									JOINT LeftHandRing2
									{
										OFFSET 6.408615 0.000000 0.000000
										CHANNELS 3 Xrotation Yrotation Zrotation
										JOINT LeftHandRing3
										{
											OFFSET 6.150223 0.000000 0.000000
											CHANNELS 3 Xrotation Yrotation Zrotation
											JOINT LeftHandRing4
											{
												OFFSET 6.145386 0.000000 0.000000
												CHANNELS 3 Xrotation Yrotation Zrotation
												End Site
												{
													OFFSET -3.671402 4.923981 -0.202372
												}
											}
										}
									}
								}
								JOINT LeftHandMiddle1
								{
									OFFSET 23.373947 0.000000 0.000001
									CHANNELS 3 Xrotation Yrotation Zrotation
									JOINT LeftHandMiddle2
									{
										OFFSET 6.996567 0.000000 0.000000
										CHANNELS 3 Xrotation Yrotation Zrotation
										JOINT LeftHandMiddle3
										{
											OFFSET 7.015945 0.000000 0.000000
											CHANNELS 3 Xrotation Yrotation Zrotation
											JOINT LeftHandMiddle4
											{
												OFFSET 7.721573 0.000000 0.000000
												CHANNELS 3 Xrotation Yrotation Zrotation
												End Site
												{
													OFFSET -4.651108 6.158463 0.251582
												}
											}
										}
									}
								}
								JOINT LeftHandIndex1
								{
									OFFSET 21.310577 -0.490082 6.209344
									CHANNELS 3 Xrotation Yrotation Zrotation
									JOINT LeftHandIndex2
									{
										OFFSET 7.536453 0.000000 0.000000
										CHANNELS 3 Xrotation Yrotation Zrotation
										JOINT LeftHandIndex3
										{
											OFFSET 7.512344 0.000000 0.000000
											CHANNELS 3 Xrotation Yrotation Zrotation
											JOINT LeftHandIndex4
											{
												OFFSET 10.212402 0.000000 0.000001
												CHANNELS 3 Xrotation Yrotation Zrotation
												End Site
												{
													OFFSET -5.180801 8.690506 1.388433
												}
											}
										}
									}
								}
							}
						}
					}
				}
				JOINT RightShoulder
				{
					OFFSET -17.399500 24.608795 1.168800
					CHANNELS 3 Xrotation Yrotation Zrotation
					JOINT RightArm
					{
						OFFSET -18.980635 5.765305 1.818600
						CHANNELS 3 Xrotation Yrotation Zrotation
						JOINT RightForeArm
						{
							OFFSET -49.290169 0.000000 0.000000
							CHANNELS 3 Xrotation Yrotation Zrotation
							JOINT RightHand
							{
								OFFSET -31.562012 0.000000 0.000000
								CHANNELS 3 Xrotation Yrotation Zrotation
								JOINT RightHandThumb1
								{
									OFFSET -6.133995 -4.388519 7.076070
									CHANNELS 3 Xrotation Yrotation Zrotation
									JOINT RightHandThumb2
									{
										OFFSET -6.037666 -3.485840 3.485847
										CHANNELS 3 Xrotation Yrotation Zrotation
										JOINT RightHandThumb3
										{
											OFFSET -6.496506 -3.750763 3.750761
											CHANNELS 3 Xrotation Yrotation Zrotation
											JOINT RightHandThumb4
											{
												OFFSET -5.616882 -3.242905 3.242910
												CHANNELS 3 Xrotation Yrotation Zrotation
												End Site
												{
													OFFSET 1.254608 7.132141 0.375429
												}
											}
										}
									}
								}
								JOINT RightHandIndex1
								{
									OFFSET -21.310577 -0.490082 6.209344
									CHANNELS 3 Xrotation Yrotation Zrotation
									JOINT RightHandIndex2
									{
										OFFSET -7.536453 0.000000 0.000000
										CHANNELS 3 Xrotation Yrotation Zrotation
										JOINT RightHandIndex3
										{
											OFFSET -7.512344 0.000000 0.000000
											CHANNELS 3 Xrotation Yrotation Zrotation
											JOINT RightHandIndex4
											{
												OFFSET -10.212402 0.000000 0.000001
												CHANNELS 3 Xrotation Yrotation Zrotation
												End Site
												{
													OFFSET 5.180801 8.690506 1.388433
												}
											}
										}
									}
								}
								JOINT RightHandMiddle1
								{
									OFFSET -23.373947 0.000000 0.000001
									CHANNELS 3 Xrotation Yrotation Zrotation
									JOINT RightHandMiddle2
									{
										OFFSET -6.996567 0.000000 0.000000
										CHANNELS 3 Xrotation Yrotation Zrotation
										JOINT RightHandMiddle3
										{
											OFFSET -7.015945 0.000000 0.000000
											CHANNELS 3 Xrotation Yrotation Zrotation
											JOINT RightHandMiddle4
											{
												OFFSET -7.721573 0.000000 0.000000
												CHANNELS 3 Xrotation Yrotation Zrotation
												End Site
												{
													OFFSET 4.651108 6.158463 0.251582
												}
											}
										}
									}
								}
								JOINT RightHandRing1
								{
									OFFSET -22.726120 -0.094986 -6.500475
									CHANNELS 3 Xrotation Yrotation Zrotation
									JOINT RightHandRing2
									{
										OFFSET -6.408615 0.000000 0.000000
										CHANNELS 3 Xrotation Yrotation Zrotation
										JOINT RightHandRing3
										{
											OFFSET -6.150223 0.000000 0.000000
											CHANNELS 3 Xrotation Yrotation Zrotation
											JOINT RightHandRing4
											{
												OFFSET -6.145386 0.000000 0.000000
												CHANNELS 3 Xrotation Yrotation Zrotation
												End Site
												{
													OFFSET 3.671402 4.923981 -0.202372
												}
											}
										}
									}
								}
								JOINT RightHandPinky1
								{
									OFFSET -18.920792 -0.453171 -11.426712
									CHANNELS 3 Xrotation Yrotation Zrotation
									JOINT RightHandPinky2
									{
										OFFSET -4.919586 0.000000 0.000000
										CHANNELS 3 Xrotation Yrotation Zrotation
										JOINT RightHandPinky3
										{
											OFFSET -5.233047 0.000000 0.000000
											CHANNELS 3 Xrotation Yrotation Zrotation
											JOINT RightHandPinky4
											{
												OFFSET -5.571716 0.000000 0.000000
												CHANNELS 3 Xrotation Yrotation Zrotation
												End Site
												{
													OFFSET 3.459808 4.342407 -0.466164
												}
											}
										}
									}
								}
							}
						}
					}
				}
			}
		}
	}
	JOINT LeftUpLeg
	{
		OFFSET 19.899099 -7.885101 -3.429500
		CHANNELS 3 Xrotation Yrotation Zrotation
		JOINT LeftLeg
		{
			OFFSET 1.745560 -36.997807 10.304700
			CHANNELS 3 Xrotation Yrotation Zrotation
			JOINT LeftFoot
			{
				OFFSET -1.745558 -29.803308 -13.615400
				CHANNELS 3 Xrotation Yrotation Zrotation
				JOINT LeftToeBase
				{
					OFFSET 1.181900 -18.539904 15.226099
					CHANNELS 3 Xrotation Yrotation Zrotation
					JOINT LeftToe_End
					{
						OFFSET -0.863701 1.402801 16.534700
						CHANNELS 3 Xrotation Yrotation Zrotation
						End Site
						{
							OFFSET 0.000000 16.616566 0.000000
						}
					}
				}
			}
		}
	}
	JOINT RightUpLeg
	{
		OFFSET -19.899099 -7.885101 -3.429500
		CHANNELS 3 Xrotation Yrotation Zrotation
		JOINT RightLeg
		{
			OFFSET -1.745560 -36.997807 10.304700
			CHANNELS 3 Xrotation Yrotation Zrotation
			JOINT RightFoot
			{
				OFFSET 1.745558 -29.803308 -13.615400
				CHANNELS 3 Xrotation Yrotation Zrotation
				JOINT RightToeBase
				{
					OFFSET -1.181900 -18.539904 15.226099
					CHANNELS 3 Xrotation Yrotation Zrotation
					JOINT RightToe_End
					{
						OFFSET 0.863701 1.402801 16.534700
						CHANNELS 3 Xrotation Yrotation Zrotation
						End Site
						{
							OFFSET 0.000000 16.616566 0.000000
						}
					}
				}
			}
		}
	}
}
MOTION
Frames: 4
Frame Time: 0.033333
-2.160809 71.588333 336.223480 16.771997 -21.348782 8.634188 9.502652 -7.496892 -14.285469 1.051268 -5.213012 3.532013 1.659026 -5.034440 3.520375 -7.023347 17.671182 -1.862515 -12.261661 16.099924 9.012894 0.000001 0.000000 -0.000000 -6.335415 -24.286976 -7.236451 -11.006022 -11.268231 -11.532758 13.645787 -55.726168 10.978761 -15.397908 -27.039908 -6.054210 -4.251617 -7.560024 8.189449 3.139328 19.227114 -1.930838 5.139165 25.618076 13.141924 -0.000001 -0.000002 -0.000002 -5.619599 7.525481 -22.034209 0.254270 0.304601 -55.027156 0.260087 0.260656 -49.037630 0.000000 0.000003 -0.000004 6.433401 2.949791 -23.548342 0.079075 0.368367 -39.692972 0.418673 0.847140 -48.646404 0.000000 0.000001 -0.000000 8.797075 -0.510902 -10.287089 0.335733 0.710193 -40.399995 0.399319 0.213050 -52.352526 -0.000001 -0.000000 0.000004 13.298399 -2.146559 0.839290 -0.155265 0.311051 -42.310365 -0.129877 0.308570 -42.800352 -0.000001 0.000003 0.000001 -7.440837 3.221559 -1.403684 -85.670694 -35.937375 -32.856372 -121.071824 54.863348 139.476452 -18.204042 16.786243 -10.460322 -11.734858 12.221710 -2.329460 5.518454 -25.708863 -0.100410 4.211531 -14.014460 -6.974995 -0.000005 -0.000004 0.000003 18.849785 11.700685 -12.486268 -0.039250 -0.405236 52.242502 -0.049460 -0.322917 42.628099 -0.000002 -0.000003 -0.000002 4.862594 2.298274 -11.547876 0.325237 -0.469701 47.281469 0.422219 0.171973 54.498786 -0.000002 -0.000001 -0.000007 -8.665385 -6.958120 -8.238450 0.128395 -0.221718 57.386198 0.381151 -0.452537 56.978415 -0.000001 -0.000000 -0.000003 -20.036208 -19.036745 2.978845 0.232889 -0.131134 75.905354 0.254606 -0.069435 70.361515 -0.000000 0.000001 0.000002 -27.606219 -6.623954 14.063029 70.533670 5.813507 -22.808715 -47.210780 -2.876339 -7.715328 -0.360003 0.940465 -0.354611 -0.000001 -0.000000 0.000000 -74.281292 19.457807 11.946971 109.400526 0.470029 1.917282 21.543716 4.546332 5.787612 -0.332021 -0.927801 0.306236 0.000000 0.000000 -0.000000 
-1.038820 72.261452 352.079193 15.273652 -21.334434 6.108987 9.991596 -8.182801 -10.302557 1.512061 -5.853804 3.021519 2.007054 -5.682545 2.982733 -7.080302 18.639923 -1.993565 -11.969202 16.920757 8.677583 -0.000000 0.000000 -0.000001 -6.448158 -24.284666 -7.807752 -9.424415 -11.073560 -12.561591 12.654144 -54.281221 12.278643 -15.541216 -28.586937 -8.189956 -4.213720 -7.549574 8.220885 2.902137 18.561048 -2.179660 5.156892 25.983937 13.324878 -0.000001 -0.000000 0.000000 -5.764427 7.381537 -20.704354 0.249297 0.299842 -53.620311 0.244237 0.244239 -44.994790 -0.000001 0.000000 -0.000002 6.410296 2.691785 -21.901066 0.074496 0.362455 -38.263659 0.399867 0.825407 -45.249006 -0.000003 -0.000000 0.000007 8.854587 -0.868431 -8.852476 0.333960 0.703433 -39.204927 0.382535 0.197902 -49.069554 0.000002 0.000001 0.000006 13.515250 -2.331829 2.342166 -0.158775 0.312343 -41.606258 -0.129820 0.310767 -40.979137 -0.000001 -0.000002 0.000001 -7.523085 3.428850 -1.181782 -85.378574 -37.872832 -35.317464 -116.500283 52.358407 135.120785 -16.819527 18.623597 -9.367697 -13.055301 13.124397 -1.245830 5.942433 -26.914311 -0.480329 4.811423 -16.930364 -7.948587 -0.000003 -0.000001 0.000002 19.036806 11.765785 -12.551358 -0.027687 -0.415181 54.308924 -0.032734 -0.337530 46.375137 -0.000003 0.000001 -0.000001 4.823428 2.404365 -11.869843 0.324260 -0.463272 48.228953 0.414979 0.189408 57.380972 -0.000002 0.000000 -0.000009 -8.919520 -6.780624 -8.607169 0.127756 -0.224306 58.676454 0.371940 -0.441236 60.266441 -0.000000 -0.000000 -0.000003 -20.284825 -19.140207 3.118788 0.231659 -0.128012 74.969584 0.253990 -0.066866 71.371679 -0.000001 0.000003 -0.000000 -9.155032 -1.006599 5.978906 61.809722 7.886023 -17.591234 -53.319421 -3.387633 -5.583060 -3.290120 0.977884 -0.057057 0.000000 -0.000000 -0.000000 -86.147086 9.510284 15.255938 99.939314 -0.412036 1.862161 25.114841 4.821255 9.458834 -0.332047 -0.927823 0.306251 0.000002 0.000000 0.000001 
-0.423412 74.513397 367.586823 13.113155 -20.332729 1.947395 11.078606 -9.034471 -4.251593 1.670119 -6.861185 2.392097 1.983285 -6.735637 2.399623 -5.905707 19.687698 -1.676256 -11.553467 18.448848 7.564872 0.000000 -0.000000 -0.000000 -6.877304 -24.133205 -8.537570 -6.766972 -10.333175 -13.552373 13.192417 -53.700935 15.394184 -17.307284 -28.580245 -9.246141 -4.212009 -7.549061 8.222336 2.613565 17.806583 -2.454193 5.104747 25.388100 13.073600 0.000001 -0.000000 -0.000002 -5.819279 7.246234 -18.955295 0.240750 0.293356 -51.509294 0.225887 0.222833 -39.944237 0.000003 -0.000001 0.000001 6.455584 2.451252 -19.731216 0.066670 0.351984 -36.078162 0.374299 0.795971 -40.387786 -0.000004 -0.000002 0.000005 8.958409 -1.267404 -6.769253 0.325502 0.693298 -36.984405 0.355265 0.173747 -43.658282 -0.000001 0.000000 0.000006 13.761159 -2.713428 4.637960 -0.159902 0.310390 -39.414699 -0.128557 0.307471 -36.395056 0.000000 -0.000000 -0.000001 -7.552938 3.550795 -0.644833 -83.880549 -38.055154 -36.487595 -116.797533 52.603317 134.776339 -18.627818 19.270663 -8.718886 -13.990329 13.794889 -0.482897 6.209585 -27.685832 -0.703652 5.201469 -19.076264 -8.657418 -0.000000 -0.000001 0.000003 19.050992 11.763317 -12.583903 -0.024594 -0.416891 55.181740 -0.025042 -0.341971 48.885505 -0.000002 -0.000004 -0.000004 4.819460 2.405290 -11.834675 0.324130 -0.463031 48.344581 0.408988 0.192768 59.288508 0.000001 -0.000001 -0.000002 -8.907173 -6.838318 -8.422609 0.128081 -0.225193 58.931091 0.363795 -0.439706 62.830876 -0.000000 -0.000000 -0.000003 -20.248946 -19.220835 3.268299 0.230334 -0.125561 72.611461 0.254010 -0.065883 69.878484 -0.000002 -0.000001 0.000004 7.708073 4.010404 1.206245 45.906576 6.987102 -10.340363 -46.311623 -3.620272 -3.279647 -13.055124 0.631134 2.241650 0.000000 -0.000001 0.000000 -86.594101 3.434929 14.661988 83.378831 -0.400915 1.463344 21.376844 4.424471 14.925586 -0.332094 -0.927824 0.306204 -0.000002 0.000001 0.000000 
-0.049245 78.202400 382.705780 12.123006 -20.304066 -0.676126 10.960678 -9.442672 0.027835 1.512153 -7.582105 2.240477 1.654219 -7.505773 2.328659 -4.001380 20.828734 -2.647977 -10.716170 20.106690 6.543831 0.000001 -0.000000 0.000000 -7.374872 -23.288811 -9.738098 -3.822932 -10.295123 -14.493124 14.547313 -53.045384 17.989197 -19.451139 -27.884360 -8.161170 -4.212043 -7.549052 8.222301 2.413496 17.289446 -2.643866 5.009776 24.381028 12.649044 0.000001 -0.000001 -0.000002 -5.868832 7.129275 -17.238066 0.232665 0.286588 -49.415042 0.212032 0.200694 -35.277340 0.000001 -0.000002 0.000003 6.515769 2.243070 -17.647602 0.059011 0.341081 -33.857029 0.354157 0.763783 -35.500414 -0.000002 -0.000002 0.000007 9.087202 -1.636767 -4.661058 0.317281 0.682307 -34.644051 0.332254 0.144916 -38.095066 0.000003 -0.000001 0.000004 14.041612 -3.075358 7.042853 -0.161124 0.308207 -36.974266 -0.127980 0.304537 -31.080711 -0.000004 0.000002 -0.000003 -7.500724 3.684346 -1.002648 -82.210855 -36.720367 -36.425638 -117.717709 54.483384 134.814643 -20.274843 18.534558 -8.180783 -14.164767 14.071563 -0.403955 6.258180 -27.825091 -0.739654 5.277457 -19.547134 -8.823746 -0.000003 0.000002 -0.000001 19.062517 11.752636 -12.643834 -0.024694 -0.416815 55.167059 -0.020097 -0.344485 50.537400 -0.000001 -0.000001 -0.000001 4.805401 2.381810 -11.528808 0.324552 -0.462904 47.947197 0.404787 0.194496 60.603654 0.000001 0.000002 -0.000004 -8.831778 -7.045936 -7.784881 0.127177 -0.223147 58.399121 0.357942 -0.439162 64.668593 -0.000002 -0.000000 -0.000003 -20.200503 -19.299932 3.417433 0.228974 -0.122761 69.863471 0.254154 -0.064273 67.176850 0.000001 0.000003 0.000008 21.106715 5.782139 -3.304783 25.655444 7.042110 -3.209016 -25.867695 -2.716092 -4.373096 -28.769675 -1.298267 5.405287 0.000000 0.000000 0.000000 -79.932632 -1.491614 14.081779 62.071065 -2.657399 -0.643678 16.593844 3.914579 13.568531 -0.332025 -0.927833 0.306143 0.000000 0.000000 0.000001 
